<svg width="630" height="93" viewBox="0 0 630 93" fill="none" xmlns="http://www.w3.org/2000/svg">
<path d="M113.1 21C110.7 21 108.9 22.8 108.9 25.2C108.9 27.6 110.7 29.4 113.1 29.4C122.4 29.4 129.9 36.9 129.9 46.2C129.9 55.5 122.25 63 113.1 63H39.45C37.05 63 35.25 64.8 35.25 67.2C35.25 69.6 37.05 71.4 39.45 71.4H113.1C127.05 71.4 138.45 60.15 138.45 46.05C138.3 32.25 127.05 21 113.1 21Z" fill="white"/>
<path d="M25.2 63.1499H4.2C1.8 63.1499 0 64.9499 0 67.3499C0 69.7499 1.8 71.5499 4.2 71.5499H25.2C27.6 71.5499 29.4 69.7499 29.4 67.3499C29.4 64.9499 27.6 63.1499 25.2 63.1499Z" fill="white"/>
<path d="M23.5501 50.55H74.1001C87.9001 50.55 99.3001 39.3 99.4501 25.2V24.9C99.4501 11.25 88.3501 0 74.5501 0C60.9001 0 49.6501 11.1 49.6501 24.9V26.1C49.6501 28.5 51.4501 30.3 53.8501 30.3C56.2501 30.3 58.0501 28.5 58.0501 26.1V24.9C58.0501 15.9 65.4001 8.55 74.4001 8.55C83.4001 8.55 90.7501 15.9 90.7501 24.9V25.2C90.7501 34.5 83.1001 42 73.9501 42H23.4001C21.0001 42 19.2001 43.8 19.2001 46.2C19.2001 48.6 21.1501 50.55 23.5501 50.55Z" fill="white"/>
<path d="M541.95 16.2C536.25 16.2 530.25 17.1 524.25 18.9V26.85C530.25 25.05 536.1 24.15 541.95 24.15C552 24.15 556.95 27.3 556.95 33.75V39C552.15 38.25 547.2 37.95 542.4 37.95C527.25 37.95 519.75 43.65 519.75 55.2C519.75 66.45 526.35 72 539.7 72C545.85 72 551.7 70.35 556.95 67.05C556.95 67.35 556.95 67.65 556.95 68.1C556.95 70.35 558.9 72 561.15 72H566.7V43.35V33.45C566.85 21.9 558.45 16.2 541.95 16.2ZM556.95 58.65C552.3 62.25 546.45 64.05 539.7 64.05C532.95 64.05 529.65 61.05 529.65 55.05C529.65 49.05 533.85 46.05 542.4 46.05C547.2 46.05 552.15 46.35 556.95 47.1V58.65Z" fill="white"/>
<path d="M148.95 16.2H155.4C157.8 16.2 160.35 18 161.1 20.25L175.65 60L190.05 20.25C190.8 18 193.35 16.2 195.75 16.2H202.2L181.05 68.1C180.15 70.2 177.6 72 175.2 72H174.6C172.2 72 169.65 70.2 168.9 68.1L148.95 16.2Z" fill="white"/>
<path d="M256.95 39.75C256.95 24 249 16.2 233.1 16.2C216 16.2 207.45 25.35 207.45 43.5C207.45 62.55 217.05 72 236.25 72C243.3 72 249.3 71.25 254.25 69.9V61.95C249.3 63.3 243.75 64.05 237.3 64.05C223.95 64.05 217.35 58.35 217.35 46.95H256.5C256.8 44.4 256.95 42 256.95 39.75ZM217.35 38.7C217.95 28.95 223.2 24 233.25 24C242.55 24 247.35 28.95 247.65 38.7H217.35Z" fill="white"/>
<path d="M457.8 39.6H449.85C444 39.6 441 37.05 441 32.1C441 26.85 445.65 24.15 454.95 24.15C461.55 24.15 468.3 25.2 474.75 27.3V18.75C468.15 16.95 461.55 16.05 454.95 16.05C439.5 16.05 431.7 21.3 431.7 31.95C431.7 42.9 437.7 48.45 449.85 48.45H457.8C463.95 48.45 467.1 51 467.1 55.95C467.1 61.2 462.6 63.9 453.75 63.9C447 63.9 440.4 62.85 433.8 60.75V69.3C440.4 71.1 447 72 453.75 72C469.2 72 477 66.75 477 56.1C477 45 470.55 39.6 457.8 39.6Z" fill="white"/>
<path d="M608.1 16.2C589.5 16.2 580.2 25.35 580.2 43.8C580.2 62.7 589.05 72 606.75 72C611.55 72 616.05 71.1 620.25 69.3V72C620.25 80.1 615 84.3 604.5 84.3C597.6 84.3 591.45 83.4 586.05 81.6V89.55C591.3 91.35 597.45 92.25 604.35 92.25C621.45 92.25 630 85.5 630 72V18.45C622.95 16.95 615.6 16.2 608.1 16.2ZM620.1 60.6C616.2 62.55 611.7 63.45 606.6 63.45C595.35 63.45 589.8 56.85 589.8 43.65C589.8 30.7499 595.8 24.3 607.65 24.3C612.6 24.3 616.8 24.75 620.1 25.65V60.6Z" fill="white"/>
<path d="M297.45 16.2C291.15 16.2 285.45 18.15 280.05 22.2C280.05 21.6 280.05 20.85 280.05 20.1C280.05 17.85 278.1 16.2 275.85 16.2H270.3V72H280.2V31.35C285.3 26.7 290.7 24.3 296.25 24.3C304.5 24.3 308.7 28.5 308.7 36.75V72H318.6V36.9C318.45 23.1 311.4 16.2 297.45 16.2Z" fill="white"/>
<path d="M344.25 24.15H357.75V16.2H344.25V12.45C344.25 11.85 344.25 11.1001 344.25 10.3501C344.25 9.15006 343.65 7.95005 342.6 7.20005V7.05005H342.45C341.7 6.60005 340.95 6.30005 340.05 6.30005H334.5V7.05005V56.85C334.5 66.9 339.15 71.85 348.6 71.85H357.9V63.9H351C346.5 63.9 344.25 61.35 344.25 56.1V24.15Z" fill="white"/>
<path d="M408.6 16.2V54.3V56.85C403.5 61.5 398.1 63.9 392.55 63.9C384.3 63.9 380.25 59.7 380.25 51.45V16.2H370.35V51.3C370.35 65.1 376.8 72.15 389.55 72.15C396 72.15 402.3 70.05 408.6 66V66.15C408.6 66.75 408.6 67.5 408.6 68.25C408.6 70.5 410.55 72.15 412.8 72.15H418.35V29.6999V16.35H408.6V16.2Z" fill="white"/>
<path d="M503.85 71.8499C506.584 71.8499 508.8 69.6337 508.8 66.8999C508.8 64.1662 506.584 61.95 503.85 61.95C501.116 61.95 498.9 64.1662 498.9 66.8999C498.9 69.6337 501.116 71.8499 503.85 71.8499Z" fill="white"/>
</svg>