<svg width="398" height="398" viewBox="0 0 398 398" fill="none" xmlns="http://www.w3.org/2000/svg">
<path d="M325.304 301.376H113.714C106.81 301.376 101.531 296.1 101.531 289.2C101.531 282.3 106.81 277.024 113.714 277.024H325.304C351.702 277.024 373.633 255.512 373.633 228.724C373.633 202.341 352.108 180.424 325.304 180.424C318.4 180.424 313.12 175.147 313.12 168.247C313.12 161.347 318.4 156.071 325.304 156.071C365.51 156.071 398 188.541 398 228.724C398 268.906 365.51 301.376 325.304 301.376Z" fill="black"/>
<path d="M72.6959 301.376H12.1837C5.27959 301.376 0 296.1 0 289.2C0 282.3 5.27959 277.024 12.1837 277.024H72.6959C79.6 277.024 84.8796 282.3 84.8796 289.2C84.8796 296.1 79.6 301.376 72.6959 301.376Z" fill="black"/>
<path d="M213.62 240.9H68.2286C61.3245 240.9 56.0449 235.624 56.0449 228.724C56.0449 221.824 61.3245 216.547 68.2286 216.547H213.62C240.018 216.547 261.949 195.035 261.949 168.247V167.435C261.949 141.459 240.831 120.353 214.839 120.353C188.847 120.353 167.729 141.459 167.729 167.435V171.088C167.729 177.988 162.449 183.265 155.545 183.265C148.641 183.265 143.361 177.988 143.361 171.088V167.435C143.361 128.065 175.445 96 214.839 96C254.233 96 286.316 128.065 286.316 167.435V168.247C285.91 208.429 253.42 240.9 213.62 240.9Z" fill="black"/>
</svg>
